<svg xmlns="http://www.w3.org/2000/svg" viewBox="0 0 512 512" width="512" height="512">
  <defs>
    <linearGradient id="gradient" x1="0%" y1="0%" x2="100%" y2="100%">
      <stop offset="0%" style="stop-color:#a855f7;stop-opacity:1" />
      <stop offset="100%" style="stop-color:#7c3aed;stop-opacity:1" />
    </linearGradient>
  </defs>
  
  <!-- Background -->
  <rect width="512" height="512" fill="#0a0a0a" rx="128"/>
  
  <!-- Book Stack -->
  <g transform="translate(96, 96)">
    <!-- Book 1 -->
    <rect x="0" y="280" width="320" height="40" fill="url(#gradient)" rx="4"/>
    <rect x="8" y="288" width="304" height="24" fill="#ffffff" opacity="0.1" rx="2"/>
    
    <!-- Book 2 -->
    <rect x="0" y="240" width="320" height="40" fill="#8b5cf6" rx="4"/>
    <rect x="8" y="248" width="304" height="24" fill="#ffffff" opacity="0.1" rx="2"/>
    
    <!-- Book 3 -->
    <rect x="0" y="200" width="320" height="40" fill="#7c3aed" rx="4"/>
    <rect x="8" y="208" width="304" height="24" fill="#ffffff" opacity="0.1" rx="2"/>
    
    <!-- Book 4 -->
    <rect x="0" y="160" width="320" height="40" fill="#6d28d9" rx="4"/>
    <rect x="8" y="168" width="304" height="24" fill="#ffffff" opacity="0.1" rx="2"/>
    
    <!-- Open Book -->
    <g transform="translate(80, 60)">
      <!-- Left Page -->
      <path d="M0 0 L80 0 L80 80 L0 80 Z" fill="#ffffff" opacity="0.9"/>
      <path d="M0 0 L80 0 L80 80 L0 80 Z" fill="none" stroke="url(#gradient)" stroke-width="2"/>
      
      <!-- Right Page -->
      <path d="M80 0 L160 0 L160 80 L80 80 Z" fill="#ffffff" opacity="0.9"/>
      <path d="M80 0 L160 0 L160 80 L80 80 Z" fill="none" stroke="url(#gradient)" stroke-width="2"/>
      
      <!-- Spine -->
      <line x1="80" y1="0" x2="80" y2="80" stroke="url(#gradient)" stroke-width="3"/>
      
      <!-- Text Lines -->
      <line x1="12" y1="20" x2="68" y2="20" stroke="url(#gradient)" stroke-width="2" opacity="0.5"/>
      <line x1="12" y1="32" x2="68" y2="32" stroke="url(#gradient)" stroke-width="2" opacity="0.5"/>
      <line x1="12" y1="44" x2="68" y2="44" stroke="url(#gradient)" stroke-width="2" opacity="0.5"/>
      
      <line x1="92" y1="20" x2="148" y2="20" stroke="url(#gradient)" stroke-width="2" opacity="0.5"/>
      <line x1="92" y1="32" x2="148" y2="32" stroke="url(#gradient)" stroke-width="2" opacity="0.5"/>
      <line x1="92" y1="44" x2="148" y2="44" stroke="url(#gradient)" stroke-width="2" opacity="0.5"/>
    </g>
  </g>
  
  <!-- Sparkles for enhancement -->
  <circle cx="420" cy="120" r="4" fill="url(#gradient)" opacity="0.8"/>
  <circle cx="450" cy="150" r="3" fill="url(#gradient)" opacity="0.6"/>
  <circle cx="400" cy="180" r="2" fill="url(#gradient)" opacity="0.4"/>
  
  <circle cx="90" cy="140" r="3" fill="url(#gradient)" opacity="0.6"/>
  <circle cx="60" cy="110" r="2" fill="url(#gradient)" opacity="0.4"/>
</svg>