<svg xmlns="http://www.w3.org/2000/svg" viewBox="0 0 192 192">
  <rect width="192" height="192" fill="#1e1e1e" rx="20"/>
  <g transform="translate(96, 96)">
    <path d="M-40 -20 L-40 20 Q-40 30 -30 30 L30 30 Q40 30 40 20 L40 -20 Q40 -30 30 -30 L-30 -30 Q-40 -30 -40 -20 Z" 
          fill="#f39c12" opacity="0.9"/>
    <path d="M-30 -15 L-30 15 M-20 -15 L-20 15 M-10 -15 L-10 15 M0 -15 L0 15 M10 -15 L10 15 M20 -15 L20 15 M30 -15 L30 15" 
          stroke="#1e1e1e" stroke-width="2" stroke-linecap="round"/>
    <text x="0" y="50" text-anchor="middle" font-family="Arial, sans-serif" font-size="16" font-weight="bold" fill="#f39c12">BOOKTARR</text>
  </g>
</svg>